<svg width="48" height="48" viewBox="0 0 48 48" fill="none" xmlns="http://www.w3.org/2000/svg">
<path fill-rule="evenodd" clip-rule="evenodd" d="M48 24C48 37.2548 37.2548 48 24 48C10.7452 48 0 37.2548 0 24C0 10.7452 10.7452 0 24 0C37.2548 0 48 10.7452 48 24ZM45.3333 24C45.3333 35.7821 35.7821 45.3333 24 45.3333C12.2179 45.3333 2.66667 35.7821 2.66667 24C2.66667 12.2179 12.2179 2.66667 24 2.66667C35.7821 2.66667 45.3333 12.2179 45.3333 24Z" fill="#EBE4FF"/>
<mask id="mask0" mask-type="alpha" maskUnits="userSpaceOnUse" x="0" y="0" width="48" height="48">
<path fill-rule="evenodd" clip-rule="evenodd" d="M48 24C48 37.2548 37.2548 48 24 48C10.7452 48 0 37.2548 0 24C0 10.7452 10.7452 0 24 0C37.2548 0 48 10.7452 48 24ZM45.3333 24C45.3333 35.7821 35.7821 45.3333 24 45.3333C12.2179 45.3333 2.66667 35.7821 2.66667 24C2.66667 12.2179 12.2179 2.66667 24 2.66667C35.7821 2.66667 45.3333 12.2179 45.3333 24Z" fill="white"/>
</mask>
<g mask="url(#mask0)">
<circle cx="24" cy="24" r="24" fill="#00B090"/>
</g>
<mask id="mask1" mask-type="alpha" maskUnits="userSpaceOnUse" x="15" y="17" width="19" height="15">
<path fill-rule="evenodd" clip-rule="evenodd" d="M33.4448 19L21.0002 31.4445L15.0557 25.5L17.0002 23.5554L21.0002 27.5554L31.5002 17.0554L33.4448 19Z" fill="#00B090"/>
</mask>
<g mask="url(#mask1)">
<path d="M17 22.5L14 25.5L21 32.5L34.5 19L31.5 16L21 26.5L17 22.5Z" fill="#00B090"/>
</g>
</svg>
