<?xml version="1.0" encoding="UTF-8"?>
<svg width="36px" height="36px" viewBox="0 0 36 36" version="1.1" xmlns="http://www.w3.org/2000/svg" xmlns:xlink="http://www.w3.org/1999/xlink">
    <!-- Generator: Sketch 62 (91390) - https://sketch.com -->
    <title>gsuite</title>
    <desc>Created with Sketch.</desc>
    <g id="gsuite" stroke="none" stroke-width="1" fill="none" fill-rule="evenodd">
        <g transform="translate(3.000000, 3.000000)" fill-rule="nonzero" id="Path">
            <path d="M29.9186916,15.6122434 C29.9186916,14.5748602 29.8345794,13.5318695 29.6551402,12.5113088 L15.2607477,12.5113088 L15.2607477,18.3879443 L23.5037383,18.3879443 C23.1616822,20.2832714 22.0626168,21.9599069 20.453271,23.0253275 L20.453271,26.8384116 L25.371028,26.8384116 C28.2588785,24.1804677 29.9186916,20.255234 29.9186916,15.6122434 Z" fill="#4285F4"></path>
            <path d="M15.2607477,30.5225237 C19.3766355,30.5225237 22.8476636,29.1711219 25.3766355,26.8384116 L20.4588785,23.0253275 C19.0906542,23.9561686 17.3242991,24.4832714 15.2663551,24.4832714 C11.2850467,24.4832714 7.90934579,21.7972901 6.69813084,18.1860751 L1.62336449,18.1860751 L1.62336449,22.1169163 C4.21401869,27.2701873 9.49065421,30.5225237 15.2607477,30.5225237 Z" fill="#34A853"></path>
            <path d="M6.69252336,18.1860751 C6.05327103,16.290748 6.05327103,14.2384116 6.69252336,12.3430845 L6.69252336,8.41224336 L1.62336449,8.41224336 C-0.541121495,12.7243929 -0.541121495,17.8047667 1.62336449,22.1169163 L6.69252336,18.1860751 Z" fill="#FBBC04"></path>
            <path d="M15.2607477,6.04028074 C17.4364486,6.00663588 19.5392523,6.82532747 21.1149533,8.32813121 L21.1149533,8.32813121 L25.4719626,3.97112186 C22.7130841,1.38046766 19.0514019,-0.043831409 15.2607477,0.00102840406 C9.49065421,0.00102840406 4.21401869,3.25336485 1.62336449,8.41224336 L6.69252336,12.3430845 C7.89813084,8.72626205 11.2794393,6.04028074 15.2607477,6.04028074 Z" fill="#EA4335"></path>
        </g>
    </g>
</svg>
